<svg width="560" height="280" viewBox="0 0 560 280" fill="none" xmlns="http://www.w3.org/2000/svg" role="img" aria-labelledby="title desc">
  <title id="title">Forma Studio project card</title>
  <desc id="desc">Chai-themed feature card for Forma Studio.</desc>
  <defs>
    <linearGradient id="bg" x1="0" y1="0" x2="560" y2="280" gradientUnits="userSpaceOnUse">
      <stop stop-color="#0A0A0F"/>
      <stop offset="1" stop-color="#151520"/>
    </linearGradient>
    <linearGradient id="accent" x1="386" y1="22" x2="520" y2="250" gradientUnits="userSpaceOnUse">
      <stop stop-color="#C084FC"/>
      <stop offset="1" stop-color="#A855F7" stop-opacity="0"/>
    </linearGradient>
  </defs>
  <rect width="560" height="280" rx="24" fill="url(#bg)"/>
  <rect x="1" y="1" width="558" height="278" rx="23" stroke="#252530"/>
  <ellipse cx="452" cy="120" rx="96" ry="86" fill="url(#accent)"/>
  <rect x="28" y="28" width="72" height="24" rx="12" fill="#191924" stroke="#282839"/>
  <text x="46" y="44" fill="#D8B4FE" font-family="'JetBrains Mono', Consolas, monospace" font-size="12">studio</text>
  <text x="28" y="98" fill="#F8FAFC" font-family="'Space Grotesk', 'Segoe UI', sans-serif" font-size="31" font-weight="700">Forma Studio</text>
  <text x="28" y="128" fill="#CBD5E1" font-family="'Outfit', 'Segoe UI', sans-serif" font-size="16">Editorial-style creative studio website with</text>
  <text x="28" y="151" fill="#CBD5E1" font-family="'Outfit', 'Segoe UI', sans-serif" font-size="16">strong visual rhythm and polished presentation.</text>
  <rect x="28" y="180" width="86" height="24" rx="12" fill="#14141D" stroke="#2A2A38"/>
  <text x="46" y="196" fill="#D8B4FE" font-family="'JetBrains Mono', Consolas, monospace" font-size="12">Frontend</text>
  <rect x="124" y="180" width="82" height="24" rx="12" fill="#14141D" stroke="#2A2A38"/>
  <text x="142" y="196" fill="#D8B4FE" font-family="'JetBrains Mono', Consolas, monospace" font-size="12">Motion</text>
  <rect x="216" y="180" width="92" height="24" rx="12" fill="#14141D" stroke="#2A2A38"/>
  <text x="234" y="196" fill="#D8B4FE" font-family="'JetBrains Mono', Consolas, monospace" font-size="12">Brand Web</text>
  <rect x="390" y="44" width="122" height="154" rx="20" fill="#101018" stroke="#2B2B3A"/>
  <rect x="406" y="60" width="90" height="118" rx="16" fill="#120F1C"/>
  <rect x="420" y="76" width="62" height="56" rx="14" fill="#C084FC"/>
  <rect x="420" y="142" width="62" height="10" rx="5" fill="#2A2140"/>
  <rect x="420" y="158" width="46" height="10" rx="5" fill="#2A2140"/>
  <text x="423" y="222" fill="#F8FAFC" font-family="'Space Grotesk', 'Segoe UI', sans-serif" font-size="40" font-weight="700">FS</text>
</svg>
