<svg width="560" height="280" viewBox="0 0 560 280" fill="none" xmlns="http://www.w3.org/2000/svg" role="img" aria-labelledby="title desc">
  <title id="title">NovaSupport project card</title>
  <desc id="desc">Chai-themed feature card for NovaSupport.</desc>
  <defs>
    <linearGradient id="bg" x1="0" y1="0" x2="560" y2="280" gradientUnits="userSpaceOnUse">
      <stop stop-color="#0A0A0F"/>
      <stop offset="1" stop-color="#151520"/>
    </linearGradient>
    <linearGradient id="accent" x1="386" y1="22" x2="520" y2="250" gradientUnits="userSpaceOnUse">
      <stop stop-color="#60A5FA"/>
      <stop offset="1" stop-color="#2563EB" stop-opacity="0"/>
    </linearGradient>
  </defs>
  <rect width="560" height="280" rx="24" fill="url(#bg)"/>
  <rect x="1" y="1" width="558" height="278" rx="23" stroke="#252530"/>
  <ellipse cx="452" cy="120" rx="96" ry="86" fill="url(#accent)"/>
  <rect x="28" y="28" width="86" height="24" rx="12" fill="#191924" stroke="#282839"/>
  <text x="46" y="44" fill="#93C5FD" font-family="'JetBrains Mono', Consolas, monospace" font-size="12">onchain</text>
  <text x="28" y="98" fill="#F8FAFC" font-family="'Space Grotesk', 'Segoe UI', sans-serif" font-size="30" font-weight="700">NovaSupport</text>
  <text x="28" y="128" fill="#CBD5E1" font-family="'Outfit', 'Segoe UI', sans-serif" font-size="16">Community support pages for Stellar ecosystem</text>
  <text x="28" y="151" fill="#CBD5E1" font-family="'Outfit', 'Segoe UI', sans-serif" font-size="16">contributors with transparent asset flows.</text>
  <rect x="28" y="180" width="84" height="24" rx="12" fill="#14141D" stroke="#2A2A38"/>
  <text x="46" y="196" fill="#93C5FD" font-family="'JetBrains Mono', Consolas, monospace" font-size="12">Stellar</text>
  <rect x="122" y="180" width="96" height="24" rx="12" fill="#14141D" stroke="#2A2A38"/>
  <text x="140" y="196" fill="#93C5FD" font-family="'JetBrains Mono', Consolas, monospace" font-size="12">Support UX</text>
  <rect x="228" y="180" width="82" height="24" rx="12" fill="#14141D" stroke="#2A2A38"/>
  <text x="246" y="196" fill="#93C5FD" font-family="'JetBrains Mono', Consolas, monospace" font-size="12">Fintech</text>
  <line x1="28" y1="230.5" x2="532" y2="230.5" stroke="#232334"/>
  <text x="28" y="252" fill="#94A3B8" font-family="'JetBrains Mono', Consolas, monospace" font-size="12">Live demo + repo</text>
  <rect x="390" y="44" width="122" height="154" rx="20" fill="#101018" stroke="#2B2B3A"/>
  <rect x="408" y="66" width="86" height="20" rx="10" fill="#0F172A"/>
  <circle cx="432" cy="128" r="18" fill="#2563EB"/>
  <circle cx="470" cy="108" r="12" fill="#60A5FA"/>
  <circle cx="470" cy="148" r="12" fill="#93C5FD"/>
  <line x1="444" y1="122" x2="460" y2="112" stroke="#BFDBFE" stroke-width="4" stroke-linecap="round"/>
  <line x1="444" y1="134" x2="460" y2="144" stroke="#BFDBFE" stroke-width="4" stroke-linecap="round"/>
  <text x="421" y="222" fill="#F8FAFC" font-family="'Space Grotesk', 'Segoe UI', sans-serif" font-size="40" font-weight="700">NS</text>
</svg>
